<svg preserveAspectRatio="none" width="100%" height="100%" overflow="visible" style="display: block;" viewBox="0 0 24 24" fill="none" xmlns="http://www.w3.org/2000/svg">
<g id="Telegram">
<path id="Vector" d="M21.4852 2.32272C21.304 2.16576 21.0836 2.06103 20.8474 2.01975C20.6113 1.97846 20.3683 2.00218 20.1446 2.08835L2.83836 8.88522C2.57282 8.9881 2.34794 9.17455 2.19765 9.41643C2.04737 9.65832 1.97983 9.94252 2.00523 10.2262C2.03063 10.5098 2.14759 10.7775 2.33846 10.9888C2.52934 11.2001 2.78376 11.3437 3.06336 11.3977L7.61023 12.3071V17.9508C7.61054 18.2094 7.68723 18.4622 7.83067 18.6773C7.9741 18.8925 8.1779 19.0605 8.41648 19.1602C8.57735 19.2258 8.74904 19.2608 8.92273 19.2633C9.09525 19.2644 9.26623 19.2309 9.42562 19.1649C9.58502 19.0989 9.7296 19.0017 9.85086 18.879L12.4102 16.3196L16.2352 19.6852C16.4722 19.8977 16.7795 20.0146 17.0977 20.0133C17.2349 20.0145 17.3712 19.9923 17.5009 19.9477C17.7173 19.8789 17.9119 19.7543 18.0649 19.5864C18.218 19.4186 18.3241 19.2134 18.3727 18.9915L21.9071 3.6071C21.9599 3.37488 21.9486 3.13267 21.8743 2.90642C21.7999 2.68016 21.6655 2.47839 21.4852 2.32272V2.32272ZM3.13836 10.1227C3.1318 10.0832 3.13952 10.0426 3.16013 10.0083C3.18074 9.97394 3.2129 9.94804 3.25086 9.93522L17.7352 4.2446L8.04148 11.2477L3.28836 10.2915C3.24693 10.2868 3.20867 10.267 3.18098 10.2359C3.15328 10.2047 3.1381 10.1644 3.13836 10.1227V10.1227ZM9.05398 18.0821C9.02798 18.1094 8.99402 18.1277 8.95696 18.1344C8.9199 18.1411 8.88166 18.136 8.84773 18.1196C8.81477 18.1052 8.78664 18.0817 8.7667 18.0517C8.74675 18.0218 8.73583 17.9868 8.73523 17.9508V13.0852L11.5571 15.579L9.05398 18.0821ZM17.2852 18.7383C17.2788 18.7709 17.2639 18.8011 17.242 18.826C17.2201 18.8509 17.192 18.8695 17.1606 18.88C17.1291 18.8905 17.0955 18.8924 17.063 18.8856C17.0306 18.8789 17.0005 18.8636 16.9759 18.8415L9.07273 11.8852L20.7915 3.42897L17.2852 18.7383Z" fill="var(--fill-0, #3969F9)" stroke="var(--stroke-0, #3969F9)"/>
</g>
</svg>
