<svg preserveAspectRatio="none" width="100%" height="100%" overflow="visible" style="display: block;" viewBox="0 0 23.6 30" fill="none" xmlns="http://www.w3.org/2000/svg">
<g id="Linkedin" clip-path="url(#clip0_0_318)">
<path id="Icon" d="M6.19716 8.56444H1.96416C1.82383 8.56444 1.68925 8.62131 1.59002 8.72255C1.49079 8.82379 1.43504 8.96109 1.43504 9.10427V22.0602C1.43504 22.2033 1.49079 22.3406 1.59002 22.4419C1.68925 22.5431 1.82383 22.6 1.96416 22.6H6.19716C6.33749 22.6 6.47207 22.5431 6.5713 22.4419C6.67053 22.3406 6.72628 22.2033 6.72628 22.0602V9.10427C6.72628 8.96109 6.67053 8.82379 6.5713 8.72255C6.47207 8.62131 6.33749 8.56444 6.19716 8.56444ZM5.66803 21.5203H2.49329V9.64409H5.66803V21.5203ZM17.3088 8.56444C16.1606 8.56444 15.0441 8.95095 14.134 9.66461V9.10427C14.134 8.96109 14.0783 8.82379 13.979 8.72255C13.8798 8.62131 13.7452 8.56444 13.6049 8.56444H9.3719C9.23157 8.56444 9.09698 8.62131 8.99775 8.72255C8.89852 8.82379 8.84278 8.96109 8.84278 9.10427V22.0602C8.84278 22.2033 8.89852 22.3406 8.99775 22.4419C9.09698 22.5431 9.23157 22.6 9.3719 22.6H13.6049C13.7452 22.6 13.8798 22.5431 13.979 22.4419C14.0783 22.3406 14.134 22.2033 14.134 22.0602V16.122C14.134 15.6925 14.3013 15.2806 14.5989 14.9769C14.8966 14.6732 15.3004 14.5026 15.7214 14.5026C16.1424 14.5026 16.5461 14.6732 16.8438 14.9769C17.1415 15.2806 17.3088 15.6925 17.3088 16.122V22.0602C17.3088 22.2033 17.3645 22.3406 17.4637 22.4419C17.563 22.5431 17.6976 22.6 17.8379 22.6H22.0709C22.2112 22.6 22.3458 22.5431 22.445 22.4419C22.5443 22.3406 22.6 22.2033 22.6 22.0602V13.9627C22.5983 12.5315 22.0403 11.1595 21.0484 10.1475C20.0564 9.13545 18.7116 8.56615 17.3088 8.56444V8.56444ZM21.5418 21.5203H18.367V16.122C18.367 15.4062 18.0883 14.7197 17.5921 14.2135C17.096 13.7073 16.4231 13.4229 15.7214 13.4229C15.0197 13.4229 14.3468 13.7073 13.8507 14.2135C13.3545 14.7197 13.0758 15.4062 13.0758 16.122V21.5203H9.90102V9.64409H13.0758V10.9429C13.0757 11.0547 13.1097 11.1638 13.1731 11.255C13.2364 11.3463 13.326 11.4152 13.4293 11.4523C13.5327 11.4894 13.6449 11.4928 13.7502 11.4621C13.8556 11.4314 13.949 11.3681 14.0176 11.2809C14.561 10.5781 15.3059 10.0658 16.1483 9.81556C16.9907 9.56528 17.8887 9.58945 18.717 9.88468C19.5453 10.1799 20.2626 10.7315 20.769 11.4625C21.2754 12.1936 21.5455 13.0676 21.5418 13.9627V21.5203ZM4.4701 1.00898C4.34575 1.00004 4.22097 0.999321 4.09653 1.00682C3.7005 0.979333 3.30316 1.03509 2.92911 1.17065C2.55506 1.30621 2.21228 1.51868 1.92199 1.7949C1.63171 2.07112 1.40011 2.4052 1.24153 2.77646C1.08295 3.14771 1.00078 3.54824 1.0001 3.95321C0.996814 4.35396 1.07426 4.75112 1.22763 5.12007C1.38099 5.48902 1.60702 5.82189 1.89169 6.09805C2.17635 6.3742 2.51359 6.58775 2.88249 6.72544C3.25139 6.86314 3.64408 6.92205 4.03621 6.89852H4.06585C4.44489 6.9256 4.82545 6.87625 5.1858 6.75328C5.54615 6.63031 5.87923 6.43613 6.16602 6.18184C6.45281 5.92754 6.6877 5.6181 6.85728 5.27118C7.02686 4.92427 7.1278 4.54668 7.15434 4.15997C7.18089 3.77326 7.13251 3.385 7.01198 3.01736C6.89145 2.64972 6.70112 2.3099 6.45187 2.0173C6.20261 1.72471 5.89931 1.48506 5.55928 1.31206C5.21924 1.13905 4.84914 1.03606 4.4701 1.00898V1.00898ZM4.43306 5.8221C4.31085 5.83344 4.18784 5.83235 4.06585 5.81886H4.03621C3.78152 5.8384 3.52564 5.80353 3.2849 5.7165C3.04416 5.62947 2.82385 5.49218 2.63804 5.31339C2.45223 5.13461 2.305 4.91826 2.20575 4.67816C2.10651 4.43806 2.05742 4.17949 2.06163 3.91895C2.06584 3.65841 2.12326 3.40163 2.23021 3.165C2.33716 2.92837 2.4913 2.71709 2.68279 2.54465C2.87427 2.37221 3.0989 2.24241 3.34232 2.16352C3.58574 2.08463 3.84261 2.05839 4.09653 2.08648C4.58208 2.04095 5.06548 2.19408 5.44037 2.51217C5.81526 2.83025 6.05094 3.28725 6.09556 3.78263C6.14019 4.278 5.9901 4.77117 5.67832 5.15365C5.36654 5.53612 4.91861 5.77657 4.43306 5.8221V5.8221Z" fill="var(--fill-0, #69B578)" stroke="var(--stroke-0, #69B578)"/>
</g>
<defs>
<clipPath id="clip0_0_318">
<rect width="23.6" height="30" fill="white"/>
</clipPath>
</defs>
</svg>
