<svg preserveAspectRatio="none" width="100%" height="100%" overflow="visible" style="display: block;" viewBox="0 0 48 48" fill="none" xmlns="http://www.w3.org/2000/svg">
<g id="Icon Button">
<path id="Icon" d="M39.8589 9.52671C39.5569 9.26511 39.1894 9.09056 38.7958 9.02176C38.4023 8.95295 37.9974 8.99247 37.6245 9.13609L8.78077 20.4642C8.3382 20.6357 7.9634 20.9464 7.71293 21.3496C7.46245 21.7527 7.34989 22.2264 7.39223 22.6991C7.43456 23.1718 7.62949 23.618 7.94761 23.9702C8.26573 24.3224 8.68978 24.5616 9.15577 24.6517L16.7339 26.1673V35.5736C16.7344 36.0046 16.8622 36.4258 17.1013 36.7844C17.3403 37.143 17.68 37.423 18.0776 37.5892C18.3458 37.6985 18.6319 37.7568 18.9214 37.7611C19.2089 37.7628 19.4939 37.7071 19.7595 37.597C20.0252 37.487 20.2662 37.325 20.4683 37.1205L24.7339 32.8548L31.1089 38.4642C31.5038 38.8183 32.016 39.0132 32.5464 39.0111C32.7749 39.013 33.0021 38.976 33.2183 38.9017C33.5791 38.787 33.9033 38.5793 34.1584 38.2996C34.4135 38.0198 34.5904 37.6778 34.6714 37.308L40.562 11.6673C40.65 11.2803 40.6311 10.8766 40.5073 10.4995C40.3834 10.1224 40.1593 9.78616 39.8589 9.52671V9.52671ZM9.28077 22.5267C9.26984 22.4608 9.2827 22.3932 9.31705 22.336C9.35141 22.2787 9.40501 22.2356 9.46827 22.2142L33.6089 12.7298L17.4526 24.4017L9.53077 22.808C9.46171 22.8002 9.39796 22.7672 9.3518 22.7153C9.30564 22.6634 9.28034 22.5962 9.28077 22.5267V22.5267ZM19.1401 35.7923C19.0968 35.8378 19.0402 35.8683 18.9784 35.8795C18.9167 35.8907 18.8529 35.8821 18.7964 35.8548C18.7415 35.8309 18.6946 35.7916 18.6613 35.7418C18.6281 35.6919 18.6099 35.6335 18.6089 35.5736V27.4642L23.312 31.6205L19.1401 35.7923ZM32.8589 36.8861C32.8482 36.9403 32.8234 36.9907 32.7869 37.0321C32.7504 37.0736 32.7035 37.1047 32.6511 37.1221C32.5987 37.1396 32.5426 37.1429 32.4885 37.1316C32.4345 37.1203 32.3843 37.0949 32.3433 37.058L19.1714 25.4642L38.7026 11.3705L32.8589 36.8861Z" fill="var(--fill-0, #3969F9)"/>
</g>
</svg>
