<svg preserveAspectRatio="none" width="100%" height="100%" overflow="visible" style="display: block;" viewBox="0 0 48 48" fill="none" xmlns="http://www.w3.org/2000/svg">
<g id="Icon Button">
<path id="Icon" d="M14.6619 18.6074H7.60694C7.37305 18.6074 7.14875 18.7022 6.98336 18.8709C6.81798 19.0396 6.72507 19.2685 6.72507 19.5071V41.1003C6.72507 41.3389 6.81798 41.5678 6.98336 41.7365C7.14875 41.9052 7.37305 42 7.60694 42H14.6619C14.8958 42 15.1201 41.9052 15.2855 41.7365C15.4509 41.5678 15.5438 41.3389 15.5438 41.1003V19.5071C15.5438 19.2685 15.4509 19.0396 15.2855 18.8709C15.1201 18.7022 14.8958 18.6074 14.6619 18.6074ZM13.7801 40.2006H8.48881V20.4068H13.7801V40.2006ZM33.1813 18.6074C31.2676 18.6074 29.4068 19.2516 27.89 20.441V19.5071C27.89 19.2685 27.7971 19.0396 27.6317 18.8709C27.4663 18.7022 27.242 18.6074 27.0082 18.6074H19.9532C19.7193 18.6074 19.495 18.7022 19.3296 18.8709C19.1642 19.0396 19.0713 19.2685 19.0713 19.5071V41.1003C19.0713 41.3389 19.1642 41.5678 19.3296 41.7365C19.495 41.9052 19.7193 42 19.9532 42H27.0082C27.242 42 27.4663 41.9052 27.6317 41.7365C27.7971 41.5678 27.89 41.3389 27.89 41.1003V31.2034C27.89 30.4876 28.1688 29.801 28.6649 29.2948C29.1611 28.7886 29.834 28.5043 30.5356 28.5043C31.2373 28.5043 31.9102 28.7886 32.4064 29.2948C32.9025 29.801 33.1813 30.4876 33.1813 31.2034V41.1003C33.1813 41.3389 33.2742 41.5678 33.4396 41.7365C33.6049 41.9052 33.8293 42 34.0631 42H41.1181C41.352 42 41.5763 41.9052 41.7417 41.7365C41.9071 41.5678 42 41.3389 42 41.1003V27.6046C41.9972 25.2192 41.0672 22.9324 39.414 21.2458C37.7607 19.5591 35.5193 18.6103 33.1813 18.6074V18.6074ZM40.2363 40.2006H34.945V31.2034C34.945 30.0103 34.4805 28.8661 33.6535 28.0224C32.8266 27.1788 31.7051 26.7048 30.5356 26.7048C29.3662 26.7048 28.2447 27.1788 27.4178 28.0224C26.5908 28.8661 26.1263 30.0103 26.1263 31.2034V40.2006H20.835V20.4068H26.1263V22.5715C26.1262 22.7579 26.1829 22.9396 26.2885 23.0917C26.394 23.2438 26.5433 23.3587 26.7156 23.4205C26.8879 23.4823 27.0748 23.488 27.2504 23.4369C27.426 23.3857 27.5817 23.2801 27.696 23.1348C28.6017 21.9635 29.8432 21.1097 31.2472 20.6926C32.6512 20.2755 34.1478 20.3157 35.5283 20.8078C36.9088 21.2999 38.1044 22.2192 38.9483 23.4376C39.7923 24.6559 40.2425 26.1126 40.2363 27.6046V40.2006ZM11.7835 6.01497C11.5763 6.00007 11.3683 5.99887 11.1609 6.01137C10.5008 5.96555 9.8386 6.05849 9.21518 6.28442C8.59177 6.51035 8.02047 6.86446 7.53666 7.32483C7.05285 7.78519 6.66684 8.342 6.40255 8.96076C6.13825 9.57953 6.0013 10.2471 6.00017 10.922C5.99469 11.5899 6.12376 12.2519 6.37938 12.8668C6.63499 13.4817 7.0117 14.0365 7.48615 14.4967C7.96059 14.957 8.52265 15.3129 9.13748 15.5424C9.75231 15.7719 10.4068 15.8701 11.0604 15.8309H11.1097C11.7415 15.876 12.3757 15.7937 12.9763 15.5888C13.5769 15.3839 14.132 15.0602 14.61 14.6364C15.088 14.2126 15.4795 13.6968 15.7621 13.1186C16.0448 12.5405 16.213 11.9111 16.2572 11.2666C16.3015 10.6221 16.2208 9.97499 16.02 9.36226C15.8191 8.74953 15.5019 8.18316 15.0864 7.6955C14.671 7.20784 14.1655 6.80844 13.5988 6.52009C13.0321 6.23175 12.4152 6.06011 11.7835 6.01497V6.01497ZM11.7218 14.0368C11.5181 14.0557 11.3131 14.0539 11.1097 14.0314H11.0604C10.6359 14.064 10.2094 14.0059 9.80816 13.8608C9.40693 13.7158 9.03975 13.487 8.73006 13.189C8.42038 12.891 8.175 12.5304 8.00959 12.1303C7.84418 11.7301 7.76237 11.2992 7.76939 10.8649C7.7764 10.4307 7.87209 10.0027 8.05035 9.60833C8.2286 9.21394 8.4855 8.86181 8.80464 8.57442C9.12379 8.28703 9.49816 8.07068 9.90387 7.9392C10.3096 7.80772 10.7377 7.76399 11.1609 7.81081C11.9701 7.73492 12.7758 7.99013 13.4006 8.52028C14.0254 9.05042 14.4182 9.81209 14.4926 10.6377C14.567 11.4633 14.3168 12.2853 13.7972 12.9227C13.2776 13.5602 12.531 13.961 11.7218 14.0368V14.0368Z" fill="var(--fill-0, #69B578)"/>
</g>
</svg>
